<svg id="Capa_1" enable-background="new 0 0 512 512" height="512" viewBox="0 0 512 512" width="512" xmlns="http://www.w3.org/2000/svg"><g><path d="m136 91h-81c-8.284 0-15-6.716-15-15s6.716-15 15-15h81c8.284 0 15 6.716 15 15s-6.716 15-15 15z" fill="#5e54ac"/><path d="m457 211h-81c-8.284 0-15-6.716-15-15s6.716-15 15-15h81c8.284 0 15 6.716 15 15s-6.716 15-15 15z" fill="#453d81"/><path d="m196 211h-141c-8.284 0-15-6.716-15-15s6.716-15 15-15h141c8.284 0 15 6.716 15 15s-6.716 15-15 15z" fill="#5e54ac"/><path d="m457 331h-141c-8.284 0-15-6.716-15-15s6.716-15 15-15h141c8.284 0 15 6.716 15 15s-6.716 15-15 15z" fill="#453d81"/><path d="m136 331h-81c-8.284 0-15-6.716-15-15s6.716-15 15-15h81c8.284 0 15 6.716 15 15s-6.716 15-15 15z" fill="#5e54ac"/><path d="m457 451h-81c-8.284 0-15-6.716-15-15s6.716-15 15-15h81c8.284 0 15 6.716 15 15s-6.716 15-15 15z" fill="#453d81"/><path d="m276 421h-221c-8.284 0-15 6.716-15 15s6.716 15 15 15h221c8.284 0 15-6.716 15-15s-6.716-15-15-15z" fill="#5e54ac"/><path d="m457 61h-221c-8.284 0-15 6.716-15 15s6.716 15 15 15h221c8.284 0 15-6.716 15-15s-6.716-15-15-15z" fill="#453d81"/><path d="m45 512h-30c-8.284 0-15-6.716-15-15v-482c0-8.284 6.716-15 15-15h30c8.284 0 15 6.716 15 15v482c0 8.284-6.716 15-15 15z" fill="#bc8173"/><path d="m497 512h-30c-8.284 0-15-6.716-15-15v-482c0-8.284 6.716-15 15-15h30c8.284 0 15 6.716 15 15v482c0 8.284-6.716 15-15 15z" fill="#9d5e4a"/><g><path d="m151 351c-19.299 0-35-15.701-35-35s15.701-35 35-35 35 15.701 35 35-15.701 35-35 35z" fill="#ff5e82"/><path d="m151 281v70c19.299 0 35-15.701 35-35s-15.701-35-35-35z" fill="#b7457d"/></g><g><path d="m151 471c-19.299 0-35-15.701-35-35s15.701-35 35-35 35 15.701 35 35-15.701 35-35 35z" fill="#ffe67a"/><path d="m151 401v70c19.299 0 35-15.701 35-35s-15.701-35-35-35z" fill="#ffc336"/></g><g><path d="m221 351c-19.299 0-35-15.701-35-35s15.701-35 35-35 35 15.701 35 35-15.701 35-35 35z" fill="#a4e9ff"/><path d="m221 281v70c19.299 0 35-15.701 35-35s-15.701-35-35-35z" fill="#91bbff"/></g><g><path d="m291 471c-19.299 0-35-15.701-35-35s15.701-35 35-35 35 15.701 35 35-15.701 35-35 35z" fill="#a4e9ff"/><path d="m291 401v70c19.299 0 35-15.701 35-35s-15.701-35-35-35z" fill="#91bbff"/></g><g><path d="m361 471c-19.299 0-35-15.701-35-35s15.701-35 35-35 35 15.701 35 35-15.701 35-35 35z" fill="#ff5e82"/><path d="m361 401v70c19.299 0 35-15.701 35-35s-15.701-35-35-35z" fill="#b7457d"/></g><g><path d="m291 231c-19.299 0-35-15.701-35-35s15.701-35 35-35 35 15.701 35 35-15.701 35-35 35z" fill="#ff5e82"/><path d="m291 161v70c19.299 0 35-15.701 35-35s-15.701-35-35-35z" fill="#b7457d"/></g><g><path d="m361 231c-19.299 0-35-15.701-35-35s15.701-35 35-35 35 15.701 35 35-15.701 35-35 35z" fill="#a4e9ff"/><path d="m361 161v70c19.299 0 35-15.701 35-35s-15.701-35-35-35z" fill="#91bbff"/></g><g><path d="m361 111c-19.299 0-35-15.701-35-35s15.701-35 35-35 35 15.701 35 35-15.701 35-35 35z" fill="#ffe67a"/><path d="m361 41v70c19.299 0 35-15.701 35-35s-15.701-35-35-35z" fill="#ffc336"/></g><g><path d="m151 111c-19.299 0-35-15.701-35-35s15.701-35 35-35 35 15.701 35 35-15.701 35-35 35z" fill="#ffe67a"/><path d="m151 41v70c19.299 0 35-15.701 35-35s-15.701-35-35-35z" fill="#ffc336"/></g><g><path d="m151 111c-19.299 0-35-15.701-35-35s15.701-35 35-35 35 15.701 35 35-15.701 35-35 35z" fill="#a4e9ff"/><path d="m151 41v70c19.299 0 35-15.701 35-35s-15.701-35-35-35z" fill="#91bbff"/></g><g><path d="m221 231c-19.299 0-35-15.701-35-35s15.701-35 35-35 35 15.701 35 35-15.701 35-35 35z" fill="#ffe67a"/><path d="m221 161v70c19.299 0 35-15.701 35-35s-15.701-35-35-35z" fill="#ffc336"/></g><g><path d="m221 111c-19.299 0-35-15.701-35-35s15.701-35 35-35 35 15.701 35 35-15.701 35-35 35z" fill="#ff5e82"/><path d="m221 41v70c19.299 0 35-15.701 35-35s-15.701-35-35-35z" fill="#b7457d"/></g><g><path d="m291 351c-19.299 0-35-15.701-35-35s15.701-35 35-35 35 15.701 35 35-15.701 35-35 35z" fill="#ffe67a"/><path d="m291 281v70c19.299 0 35-15.701 35-35s-15.701-35-35-35z" fill="#ffc336"/></g></g></svg>