<?xml version="1.0"?>
<svg xmlns="http://www.w3.org/2000/svg" xmlns:xlink="http://www.w3.org/1999/xlink" xmlns:svgjs="http://svgjs.com/svgjs" version="1.1" width="512" height="512" x="0" y="0" viewBox="0 0 512 512" style="enable-background:new 0 0 512 512" xml:space="preserve" class=""><g><g xmlns="http://www.w3.org/2000/svg"><g><g><path d="m474.604 74.872c18.567 0 33.619 15.052 33.619 33.619v336.347c0 18.568-15.052 33.619-33.619 33.619h-437.208c-18.567 0-33.619-15.052-33.619-33.619v-336.347c0-18.567 15.052-33.619 33.619-33.619z" fill="#fee9b2" data-original="#ffdd40" style="" class=""/><path d="m432.424 108.491c3.959 0 7.383 2.762 8.207 6.634 2.826 13.268 13.915 24.495 27.361 27.34 3.864.818 6.612 4.253 6.612 8.203v251.992c0 3.95-2.747 7.385-6.612 8.203-13.445 2.845-24.535 14.072-27.361 27.34-.825 3.872-4.249 6.634-8.207 6.634h-352.848c-3.959 0-7.383-2.762-8.208-6.634-2.826-13.268-13.915-24.495-27.361-27.34-3.864-.818-6.611-4.253-6.611-8.203v-251.992c0-3.95 2.747-7.385 6.612-8.203 13.446-2.845 24.535-14.072 27.361-27.34.825-3.872 4.249-6.634 8.208-6.634z" fill="#ebf5fc" data-original="#ebf5fc" style="" class=""/><path d="m474.604 74.872h-23.345c18.567 0 33.619 15.052 33.619 33.619v336.347c0 18.568-15.052 33.619-33.619 33.619h23.345c18.567 0 33.619-15.052 33.619-33.619v-336.347c0-18.567-15.052-33.619-33.619-33.619z" fill="#ffd48c" data-original="#ffb332" style="" class=""/><path d="m467.992 142.465c-13.445-2.845-24.535-14.072-27.361-27.34-.825-3.872-4.249-6.634-8.208-6.634h-23.345c3.959 0 7.383 2.762 8.208 6.634 2.826 13.268 13.915 24.495 27.361 27.34 3.864.818 6.612 4.253 6.612 8.203v251.992c0 3.95-2.747 7.385-6.612 8.203-13.445 2.845-24.535 14.072-27.361 27.34-.825 3.872-4.249 6.634-8.208 6.634h23.345c3.959 0 7.383-2.762 8.208-6.634 2.826-13.268 13.915-24.495 27.361-27.34 3.865-.818 6.612-4.253 6.612-8.203v-251.992c0-3.95-2.747-7.385-6.612-8.203z" fill="#d3dcfb" data-original="#d3dcfb" style="" class=""/></g><g><path d="m476.705 116.18h-4.203c-4.205 0-7.612-3.408-7.612-7.612s3.408-7.612 7.612-7.612h4.203c4.205 0 7.612 3.408 7.612 7.612.001 4.204-3.407 7.612-7.612 7.612z" fill="#4fabf7" data-original="#4fabf7" style="" class=""/></g><g><path d="m39.497 116.18h-4.203c-4.204 0-7.612-3.408-7.612-7.612s3.408-7.612 7.612-7.612h4.203c4.204 0 7.612 3.408 7.612 7.612.001 4.204-3.407 7.612-7.612 7.612z" fill="#4fabf7" data-original="#4fabf7" style="" class=""/></g><g><path d="m39.497 452.45h-4.203c-4.204 0-7.612-3.408-7.612-7.612s3.408-7.612 7.612-7.612h4.203c4.204 0 7.612 3.408 7.612 7.612.001 4.204-3.407 7.612-7.612 7.612z" fill="#4fabf7" data-original="#4fabf7" style="" class=""/></g><g><path d="m476.706 452.45h-4.203c-4.205 0-7.612-3.408-7.612-7.612s3.408-7.612 7.612-7.612h4.203c4.205 0 7.612 3.408 7.612 7.612.001 4.204-3.407 7.612-7.612 7.612z" fill="#4fabf7" data-original="#4fabf7" style="" class=""/></g><g><path d="m315.161 226.312h-118.478c-4.418 0-8-3.582-8-8v-17.619c0-4.418 3.582-8 8-8h118.478c4.418 0 8 3.582 8 8v17.619c0 4.418-3.582 8-8 8z" fill="#4fabf7" data-original="#4fabf7" style="" class=""/><g><g><path d="m407.21 267.544h-302.575c-4.204 0-7.612-3.408-7.612-7.612s3.408-7.612 7.612-7.612h302.575c4.205 0 7.612 3.408 7.612 7.612 0 4.203-3.408 7.612-7.612 7.612z" fill="#3c58a0" data-original="#3c58a0" style="" class=""/></g></g><g><g><path d="m407.21 301.163h-302.575c-4.204 0-7.612-3.408-7.612-7.612s3.408-7.612 7.612-7.612h302.575c4.205 0 7.612 3.408 7.612 7.612s-3.408 7.612-7.612 7.612z" fill="#3c58a0" data-original="#3c58a0" style="" class=""/></g></g><g><g><path d="m296.896 334.782h-141.832c-4.204 0-7.612-3.408-7.612-7.612s3.408-7.612 7.612-7.612h141.832c4.205 0 7.612 3.408 7.612 7.612s-3.408 7.612-7.612 7.612z" fill="#3c58a0" data-original="#3c58a0" style="" class=""/></g></g><g><g><path d="m155.064 401.944h-50.43c-4.204 0-7.612-3.408-7.612-7.612s3.408-7.612 7.612-7.612h50.43c4.204 0 7.612 3.408 7.612 7.612.001 4.204-3.408 7.612-7.612 7.612z" fill="#4ce088" data-original="#4ce088" style=""/></g></g><path d="m315.041 192.692h-23.345c4.484 0 8.12 3.635 8.12 8.12v17.38c0 4.484-3.635 8.12-8.12 8.12h23.345c4.484 0 8.12-3.636 8.12-8.12v-17.38c0-4.484-3.635-8.12-8.12-8.12z" fill="#1886ea" data-original="#1886ea" style=""/></g><g><g><path d="m399.536 412.604 5.899 11.798c1.167 2.334 1.775 4.908 1.775 7.517v71.669c0 5.737-5.62 9.788-11.063 7.974l-22.556-7.518-14.153-12.919c-1.725-.575-3.59-.575-5.316 0l-14.152 12.919-22.556 7.519c-5.442 1.814-11.063-2.237-11.063-7.974v-71.669c0-2.61.608-5.183 1.775-7.517l5.898-11.796z" fill="#ff4155" data-original="#ff4155" style=""/><path d="m405.435 424.402-5.899-11.798-23.344.001 5.899 11.798c1.167 2.334 1.775 4.908 1.775 7.517v71.669c0 1.309-.304 2.523-.82 3.606l13.102 4.367c5.442 1.814 11.063-2.237 11.063-7.974v-71.668c-.002-2.61-.609-5.184-1.776-7.518z" fill="#d60b3c" data-original="#e80054" style="" class=""/><path d="m373.59 412.605-33.619.001v91.437l14.152-4.717c1.725-.575 3.591-.575 5.316 0l14.152 4.717v-91.438z" fill="#ebf5fc" data-original="#ebf5fc" style="" class=""/><circle cx="356.78" cy="360.713" fill="#fee9b2" r="67.239" data-original="#ffdd40" style="" class=""/><g fill="#ffb332"><ellipse cx="356.78" cy="360.713" rx="33.619" ry="33.619" transform="matrix(.707 -.707 .707 .707 -150.564 357.932)" fill="#ffd48c" data-original="#ffb332" style="" class=""/><path d="m356.78 293.474c-3.983 0-7.879.366-11.672 1.031 31.568 5.529 55.566 33.057 55.566 66.208s-23.999 60.68-55.566 66.208c3.793.664 7.689 1.031 11.672 1.031 37.135 0 67.239-30.104 67.239-67.239s-30.104-67.239-67.239-67.239z" fill="#ffd48c" data-original="#ffb332" style="" class=""/></g></g><g><path d="m358.881 368.325h-4.202c-4.205 0-7.612-3.408-7.612-7.612s3.408-7.612 7.612-7.612h4.202c4.205 0 7.612 3.408 7.612 7.612s-3.407 7.612-7.612 7.612z" fill="#3c58a0" data-original="#3c58a0" style="" class=""/></g></g></g><g><path d="m332.074 158.946h-152.148c-4.418 0-8-3.582-8-8v-117.316h168.149v117.316c-.001 4.419-3.582 8-8.001 8z" fill="#3c58a0" data-original="#3c58a0" style="" class=""/><path d="m316.73 33.63v117.196c0 4.484-3.635 8.12-8.12 8.12h23.345c4.484 0 8.12-3.635 8.12-8.12v-117.196z" fill="#2a428c" data-original="#2a428c" style="" class=""/><path d="m171.926 132.929h168.148v-15.225h-168.148z" fill="#2a428c" data-original="#2a428c" style="" class=""/><path d="m416.149 41.242h-320.298c-4.418 0-8-3.582-8-8v-17.63c0-4.418 3.582-8 8-8h320.298c4.418 0 8 3.582 8 8v17.63c0 4.418-3.582 8-8 8z" fill="#3c58a0" data-original="#3c58a0" style="" class=""/><path d="m416.029 7.612h-23.345c4.485 0 8.12 3.635 8.12 8.12v17.39c0 4.484-3.635 8.12-8.12 8.12h23.345c4.484 0 8.12-3.635 8.12-8.12v-17.39c0-4.484-3.636-8.12-8.12-8.12z" fill="#2a428c" data-original="#2a428c" style="" class=""/><g><g><path d="m390.519 121.511c-4.205 0-7.612-3.408-7.612-7.612v-106.287c0-4.205 3.408-7.612 7.612-7.612 4.205 0 7.612 3.408 7.612 7.612v106.286c0 4.205-3.407 7.613-7.612 7.613z" fill="#e9efff" data-original="#e9efff" style="" class=""/></g></g><path d="m407.334 125.317c0-9.556-7.972-17.251-17.628-16.796-9.044.426-16.002 8.216-16.002 17.271v24.747c0 4.643 3.764 8.407 8.407 8.407h16.815c4.643 0 8.407-3.764 8.407-8.407v-25.222z" fill="#fee9b2" data-original="#ffdd40" style="" class=""/><path d="m389.706 108.521c-4.213.198-7.96 2.008-10.775 4.786 3.118 3.052 5.059 7.302 5.059 12.01v25.222c0 3.485-2.121 6.475-5.143 7.749 1.004.423 2.107.658 3.265.658h16.815c4.643 0 8.407-3.764 8.407-8.408v-25.222c0-9.556-7.972-17.25-17.628-16.795z" fill="#ffd48c" data-original="#ffb332" style="" class=""/></g></g></g></svg>
