<svg height="511pt" viewBox="-30 1 511 511.9995" width="511pt" xmlns="http://www.w3.org/2000/svg"><path d="m261.652344 423.269531-51.871094-95.089843v-91.179688h-150v91.179688l-51.871094 95.089843c-21.785156 39.953125 7.078125 88.730469 52.671875 88.730469h148.398438c45.515625 0 74.496093-48.703125 52.671875-88.730469zm0 0" fill="#dcf1ff"/><path d="m261.652344 423.269531c-31.222656-57.234375-23.464844-43.011719-51.871094-95.089843v-91.179688h-75.128906v275h74.328125c45.515625 0 74.496093-48.703125 52.671875-88.730469zm0 0" fill="#bfe4fe"/><path d="m214.78125 242h-160c-8.285156 0-15-6.714844-15-15s6.714844-15 15-15h160c8.285156 0 15 6.714844 15 15s-6.714844 15-15 15zm0 0" fill="#dcf1ff"/><path d="m229.78125 227c0 8.28125-6.71875 15-15 15h-80.128906v-30h80.128906c8.28125 0 15 6.71875 15 15zm0 0" fill="#bfe4fe"/><path d="m428.8125 162.789062-141.460938-141.460937c-.457031.566406-105.507812 105.585937-106.019531 106.101563l141.417969 141.417968c29.289062 29.3125 76.757812 29.324219 106.0625 0 29.304688-29.285156 29.320312-76.757812 0-106.058594zm0 0" fill="#dcf1ff"/><path d="m428.8125 162.789062-141.460938-141.460937c-.457031.570313-52.636718 52.707031-53.152343 53.222656l194.453125 194.449219c.046875-.039062.109375-.101562.160156-.152344 29.304688-29.285156 29.320312-76.757812 0-106.058594zm0 0" fill="#bfe4fe"/><path d="m163.648438 130.964844c-5.859376-5.855469-5.859376-15.355469 0-21.210938l105.359374-105.359375c5.855469-5.859375 15.355469-5.859375 21.210938 0 5.859375 5.855469 5.859375 15.355469 0 21.210938l-105.355469 105.359375c-5.859375 5.859375-15.359375 5.859375-21.214843 0zm0 0" fill="#dcf1ff"/><path d="m290.21875 25.609375-52.476562 52.480469-21.210938-21.210938 52.480469-52.488281c5.847656-5.851563 15.347656-5.851563 21.207031 0 5.863281 5.859375 5.855469 15.371094 0 21.21875zm0 0" fill="#bfe4fe"/><path d="m236.410156 377h-203.261718l-25.238282 46.269531c-21.796875 39.960938 7.089844 88.730469 52.671875 88.730469h148.394531c45.515626 0 74.5-48.710938 52.671876-88.730469zm0 0" fill="#e33754"/><path d="m208.980469 512h-74.328125v-135h101.757812l25.242188 46.269531c21.785156 39.960938-7.085938 88.730469-52.671875 88.730469zm0 0" fill="#d1002d"/><path d="m428.8125 162.785156-26.785156-26.785156h-212.132813l132.851563 132.851562c29.3125 29.308594 76.753906 29.3125 106.066406 0s29.316406-76.753906 0-106.066406zm0 0" fill="#f6d401"/><path d="m428.8125 268.847656c-.050781.050782-.113281.113282-.160156.152344l-133-133h106.378906l26.78125 26.789062c29.304688 29.289063 29.320312 76.757813 0 106.058594zm0 0" fill="#fd9d34"/><path d="m150.152344 167c0 8.285156-6.71875 15-15 15-8.285156 0-15-6.714844-15-15s6.714844-15 15-15c8.28125 0 15 6.714844 15 15zm0 0" fill="#f6993c"/><path d="m150.152344 167c0 8.902344-7.707032 15.476562-15.5 14.988281v-29.980469c7.761718-.484374 15.5 6.058594 15.5 14.992188zm0 0" fill="#ec5b20"/><path d="m120.152344 107c0 8.285156-6.71875 15-15 15-8.285156 0-15-6.714844-15-15s6.714844-15 15-15c8.28125 0 15 6.714844 15 15zm0 0" fill="#2aeed0"/><path d="m120.152344 107c0 8.902344-7.707032 15.476562-15.5 14.988281v-29.980469c7.761718-.484374 15.5 6.058594 15.5 14.992188zm0 0" fill="#1bdeab"/></svg>