<svg id="Capa_1" enable-background="new 0 0 497 497" height="512" viewBox="0 0 497 497" width="512" xmlns="http://www.w3.org/2000/svg"><g><path d="m292.494 417.437h-117.888c-27.764 0-50.271 22.507-50.271 50.271v2.723c0 14.673 11.895 26.569 26.569 26.569h165.293c14.673 0 26.569-11.895 26.569-26.569v-2.723c-.001-27.764-22.508-50.271-50.272-50.271z" fill="#827f98"/><path d="m171.897 417.511c-26.504 1.408-47.561 23.342-47.561 50.196v2.724c0 14.673 11.895 26.568 26.569 26.568h64.182c-24.548-18.41-41.023-46.99-43.19-79.488z" fill="#77718c"/><g><path d="m411.764 55.7-178.21 142.713-142.723 178.22c40.366 32.453 90.186 50.093 142.723 50.093 60.972 0 118.298-23.739 161.417-66.845 43.133-43.12 66.888-100.463 66.888-161.468 0-52.515-17.641-102.335-50.095-142.713z" fill="#e8a882"/></g><g><path d="m42.493 389.475c-9.802-9.802-9.802-25.694 0-35.497l346.627-346.627c9.803-9.802 25.694-9.802 35.497 0 9.802 9.802 9.802 25.694 0 35.497l-346.628 346.627c-9.8 9.8-25.694 9.803-35.496 0z" fill="#f1c6ad"/></g><path d="m94.157 79.644c-27.277 31.98-43.736 73.452-43.736 118.769 0 101.142 81.991 183.133 183.133 183.133 3.336 0 6.657-.087 9.953-.27l40.727-40.727v-84.214l-68.857-30.714v-122.327z" fill="#81ddfd"/><path d="m398.545 277.957c11.621-24.052 18.135-51.044 18.135-79.544 0-44.84-16.125-85.923-42.886-117.76l-158.416 22.641v122.327l68.857 30.714z" fill="#81ddfd"/><path d="m108.131 204.719c0-42.044 9.919-81.766 27.52-116.979l-41.494-8.096c-27.277 31.98-43.736 73.452-43.736 118.769 0 77.161 47.722 143.168 115.259 170.135-35.999-44.869-57.549-101.828-57.549-163.829z" fill="#5bd6fd"/><path d="m398.545 277.957c-28.238 58.487-86.662 99.657-155.038 103.319l-4.758-11.55c-3.051-7.405-.567-15.914 5.918-20.541 4.536-3.217 7.221-8.436 7.221-13.996-.376-3.261 1.643-10.886-4.647-17.594l-8.968-9.564c-5.505-5.87-6.196-14.783-1.66-21.431l2.407-3.527c6.442-9.453 2.026-22.44-8.833-26.006l-26.038-8.547c-2.391-.786-4.401-2.415-5.664-4.591l-17.857-30.717c-3.884-6.696-13.512-6.823-17.579-.23l-4.274 6.927c-2.263 3.661-6.483 5.427-10.461 4.718-5.918-1.017-9.691-6.879-8.182-12.685l9.246-35.395c.731-2.82 2.637-5.195 5.227-6.529l18.842-9.699c11.348-5.817 3.916-24.092-10.716-26.594-9.619-2.008-15.78-1.576-23.488-6.259l-27.341-16.594c-6.76-4.107-11.74-10.596-13.948-18.19l-3.797-13.035v-.008c33.592-39.383 83.572-64.357 139.397-64.357 56.294 0 106.655 25.403 140.239 65.374l-7.443 13.234c-2.829 5.055-8.091 8.57-14.147 9.055-6.053.485-11.446 4.011-14.314 9.357l-6.815 12.701c-3.328 6.204-9.993 9.874-17.023 9.373-4.256-.284-5.058-.421-7.085-.421-15.617 0-29.114 10.89-32.401 26.165-2.614 9.976-2.275 17.602-8.738 26.189l-15.537 20.732c-3.614 4.83-2.582 11.685 2.304 15.227l13.464 9.762c2.613 1.891 5.934 2.518 9.063 1.708 18.408-4.589 19.583-5.568 24.084-5.568 5.529 0 10.906 2.192 14.886 6.236 11.273 11.455 23.614 2.45 35.292 8.674 20.272 10.928 2.7-.197 49.162 34.877z" fill="#36d39a"/><path d="m122.986 117.596c12.628-35.823 32.816-68.075 58.66-94.84-34.491 10.176-64.748 30.22-87.488 56.881v.008l3.797 13.035c2.208 7.594 7.189 14.083 13.948 18.19z" fill="#00cd8c"/></g></svg>