<svg id="Layer_1" enable-background="new 0 0 512.056 512.056" height="512" viewBox="0 0 512.056 512.056" width="512" xmlns="http://www.w3.org/2000/svg"><path d="m106.087 463.548c-7.158-5.181-8.761-15.185-3.58-22.343 5.182-7.157 15.185-8.762 22.342-3.579 77.378 56.007 183.432 57.127 262.356 0 7.16-5.181 17.163-3.577 22.343 3.579 5.182 7.158 3.579 17.162-3.579 22.343-88.466 64.034-209.644 65.317-299.882 0z" fill="#bdefe1"/><path d="m396.574 77.469c-3.251 0-6.532-.987-9.368-3.04-77.377-56.007-183.432-57.127-262.356 0-7.156 5.181-17.161 3.579-22.342-3.579s-3.579-17.162 3.58-22.343c88.472-64.038 209.65-65.312 299.883 0 12.536 9.074 6.081 28.962-9.397 28.962z" fill="#bdefe1"/><path d="m450.574 412.589c-12.846 0-20.676-14.705-12.947-25.383 56.007-77.377 57.127-183.432 0-262.355-5.182-7.158-3.579-17.162 3.579-22.343 7.159-5.182 17.162-3.579 22.343 3.579 64.035 88.468 65.316 209.645 0 299.883-3.129 4.322-8.017 6.619-12.975 6.619z" fill="#bdefe1"/><path d="m61.481 412.589c-4.958 0-9.845-2.297-12.975-6.62-64.041-88.479-65.306-209.653 0-299.881 5.182-7.159 15.185-8.762 22.343-3.58 7.158 5.181 8.761 15.184 3.58 22.342-56.013 77.39-57.118 183.441 0 262.357 7.716 10.66-.076 25.382-12.948 25.382z" fill="#bdefe1"/><path d="m416.028 256.028c0 88.588-71.847 160-160 160-88.232 0-160-71.485-160-160 0-72.232 47.987-133.787 114.56-153.45 102.655-30.367 205.44 46.845 205.44 153.45z" fill="#6994ff"/><path d="m414.238 232.028c-16.818 111.764-142.377 171.713-240.06 113.51-40.439-24.128-69.123-65.418-76.36-113.51 5.188-34.473 21.617-66.729 47.61-91.62 94.367-90.262 249.78-34.816 268.81 91.62z" fill="#80aaff"/><g fill="#4379ff"><circle cx="432.028" cy="80.028" r="40"/><circle cx="432.028" cy="432.028" r="40"/><circle cx="80.028" cy="80.028" r="40"/><circle cx="80.028" cy="432.028" r="40"/><path d="m387.588 164.938c-70.361 79.144-193.434 78.386-263.12 0 6.15-8.87 13.18-17.08 20.96-24.53 3.852 3.569 27.371 35.066 75.11 47.19 52.407 13.32 108.789-3.738 144.92-45.97.37-.43.76-.84 1.17-1.22 7.78 7.45 14.81 15.66 20.96 24.53z"/><path d="m387.588 347.128c-6.16 8.87-13.18 17.08-20.96 24.52-.41-.38-.8-.79-1.17-1.22-57.479-67.177-161.383-67.175-218.86 0-.37.43-.76.84-1.17 1.22-7.78-7.44-14.8-15.65-20.96-24.52 69.841-78.768 193.296-78.749 263.12 0z"/><path d="m301.468 102.578c-14.4-4.26-29.66-6.55-45.44-6.55 7.18 0 26.384 26.381 35.49 91.57 7.896 56.764 6.086 133.984-11.14 188.03-9.71 30.52-20.6 40.4-24.35 40.4 15.79 0 31.04-2.29 45.44-6.55 35.534-74.104 35.234-233.421 0-306.9zm-69.79 273.05c-11.615-36.441-15.65-81.657-15.65-119.6 0-100.698 27.157-160 40-160-15.78 0-31.04 2.29-45.44 6.55-34.705 72.375-36.008 231.808 0 306.9 14.4 4.26 29.65 6.55 45.44 6.55-3.75 0-14.64-9.88-24.35-40.4z"/></g></svg>