<svg id="Capa_1" enable-background="new 0 0 512 512" height="512" viewBox="0 0 512 512" width="512" xmlns="http://www.w3.org/2000/svg"><g><g><path d="m421 61h30v45h-30z" fill="#ff9f40"/></g><g><path d="m442.123 92.304-6.123-2.74-6.123 2.739c-6.504 2.916-38.877 18.677-38.877 43.697v45l29.996 15h30.004l30-15v-45c0-25.02-32.373-40.781-38.877-43.696z" fill="#ff9f40"/></g><g><path d="m61 61h30v45h-30z" fill="#ffbe40"/></g><g><path d="m82.123 92.304-6.123-2.74-6.123 2.739c-6.504 2.916-38.877 18.677-38.877 43.697v45l29.996 15h30.004l30-15v-45c0-25.02-32.373-40.781-38.877-43.696z" fill="#ffbe40"/></g><path d="m295.844 72.118c-9.287-7.998-24.844-21.372-24.844-26.118h-15-15c0 4.746-15.557 18.12-24.844 26.118-27.495 23.657-65.156 56.06-65.156 108.882v15h105 105v-15c0-52.822-37.661-85.225-65.156-108.882z" fill="#ff9f40"/><path d="m361 181c0-52.822-37.661-85.225-65.156-108.882-9.287-7.998-24.844-21.372-24.844-26.118h-15v150h105z" fill="#ff7f40"/><path d="m281.034 79.677c-5.61-13.535-10.034-24.229-10.034-33.677v-46h-15-15v46c0 9.448-4.424 20.142-10.034 33.677-8.892 21.474-19.966 48.193-19.966 86.323v30h45 45v-30c0-38.13-11.074-64.849-19.966-86.323z" fill="#ffbe40"/><path d="m301 166c0-38.13-11.074-64.849-19.966-86.323-5.61-13.535-10.034-24.229-10.034-33.677v-46h-15v196h45z" fill="#ff9f40"/><path d="m31 181h450v75h-450z" fill="#ffdf40"/><path d="m256 181h225v75h-225z" fill="#ffbe40"/><path d="m376 271v90l-15 30h-210l-15-30v-90l15-15h210z" fill="#ffdf40"/><path d="m376 271v90l-15 30h-105v-135h105z" fill="#ffbe40"/><path d="m361 256h120v135h-120z" fill="#ff9f40"/><path d="m31 256h120v135h-120z" fill="#ffbe40"/><path d="m301 346v30h-90v-30c0-24.901 20.099-45 45-45s45 20.099 45 45z" fill="#4d5e80"/><path d="m301 346v30h-45v-75c24.901 0 45 20.099 45 45z" fill="#3d4566"/><path d="m512 361v151h-91l-30-30h-30l-30 30h-30l-30-30h-30l-30 30h-30l-30-30h-30l-30 30h-91v-151z" fill="#f3f5f9"/><g><path d="m406 301h30v30h-30z" fill="#4d5e80"/></g><g><path d="m76 301h30v30h-30z" fill="#4d5e80"/></g><path d="m512 361v151h-91l-30-30h-30l-30 30h-30l-30-30h-15v-121z" fill="#e1e6f0"/><path d="m256 241h-256v30h256 256v-30z" fill="#ff9f40"/><path d="m256 241h256v30h-256z" fill="#ff7f40"/><path d="m91 421h90v91h-90z" fill="#4d5e80"/><path d="m211 421h90v91h-90z" fill="#4d5e80"/><path d="m256 421h45v91h-45z" fill="#3d4566"/><path d="m331 421h90v91h-90z" fill="#2e2e4d"/></g></svg>