<?xml version="1.0" encoding="iso-8859-1"?>
<!-- Generator: Adobe Illustrator 19.0.0, SVG Export Plug-In . SVG Version: 6.00 Build 0)  -->
<svg version="1.1" id="Layer_1" xmlns="http://www.w3.org/2000/svg" xmlns:xlink="http://www.w3.org/1999/xlink" x="0px" y="0px"
	 viewBox="0 0 512 512" style="enable-background:new 0 0 512 512;" xml:space="preserve">
<polyline style="fill:#E2B44D;" points="306.922,36.512 306.922,23.812 266.611,0 245.389,0 205.078,23.812 205.078,36.512 "/>
<rect x="155.813" y="34.8" style="fill:#F4C653;" width="200.38" height="64.363"/>
<g>
	<rect x="155.813" y="91.108" style="fill:#E2B44D;" width="200.38" height="8.055"/>
	<circle style="fill:#E2B44D;" cx="184.281" cy="66.983" r="10.838"/>
	<circle style="fill:#E2B44D;" cx="327.715" cy="66.983" r="10.838"/>
</g>
<rect x="115.81" y="97.452" style="fill:#F4C653;" width="280.375" height="38.168"/>
<rect x="115.81" y="127.745" style="fill:#E2B44D;" width="280.375" height="7.876"/>
<g>
	<rect x="97.36" y="134.477" style="fill:#F4C653;" width="317.263" height="38.168"/>
	<path style="fill:#F4C653;" d="M417.533,172.659V512h-93.675V284.898c0-18.735-7.588-35.713-19.865-47.99
		s-29.255-19.876-47.99-19.876c-37.481,0-67.866,30.385-67.866,67.866V512H94.474V172.659H417.533z"/>
</g>
<g>
	<rect x="94.474" y="172.654" style="fill:#E2B44D;" width="323.059" height="25.741"/>
	<rect x="94.474" y="303.503" style="fill:#E2B44D;" width="93.664" height="24.684"/>
	<rect x="323.858" y="303.503" style="fill:#E2B44D;" width="93.664" height="24.684"/>
</g>
<path style="fill:#F4C653;" d="M428.293,180.067H83.707c-4.096,0-7.416-3.32-7.416-7.416s3.32-7.416,7.416-7.416h344.585
	c4.096,0,7.416,3.32,7.416,7.416S432.389,180.067,428.293,180.067z"/>
<g>
	<circle style="fill:#E2B44D;" cx="141.311" cy="238.466" r="17.115"/>
	<circle style="fill:#E2B44D;" cx="370.696" cy="238.466" r="17.115"/>
</g>
<g>
	<path style="fill:#F4C653;" d="M198.198,310.919H94.476c-4.096,0-7.416-3.32-7.416-7.416c0-4.096,3.32-7.416,7.416-7.416h103.721
		c4.096,0,7.416,3.32,7.416,7.416C205.614,307.599,202.294,310.919,198.198,310.919z"/>
	<path style="fill:#F4C653;" d="M417.524,310.919H313.802c-4.096,0-7.416-3.32-7.416-7.416c0-4.096,3.32-7.416,7.416-7.416h103.721
		c4.096,0,7.416,3.32,7.416,7.416C424.94,307.599,421.62,310.919,417.524,310.919z"/>
</g>
<g>
</g>
<g>
</g>
<g>
</g>
<g>
</g>
<g>
</g>
<g>
</g>
<g>
</g>
<g>
</g>
<g>
</g>
<g>
</g>
<g>
</g>
<g>
</g>
<g>
</g>
<g>
</g>
<g>
</g>
</svg>
