<svg height="512" viewBox="0 0 58 58" width="512" xmlns="http://www.w3.org/2000/svg"><g id="003---Global-Language" fill="none" transform="translate(-1)"><path id="Shape" d="m59 58c-5.4943007.1796184-10.9597221-.8656434-16-3.06-18.85 9.5-42-4.05-42-25.94.00113775-12.580217 8.11310079-23.72498373 20.0839913-27.59275352 11.9708905-3.86776978 25.0702566.4236606 32.4320457 10.62493132 7.361789 10.2012708 7.3068434 23.9855644-.136037 34.1278222.62 3.65 2.01 8.84 5.62 11.84z" fill="#2980ba"/><g fill="#4fba6f"><path id="Shape" d="m59 58c-5.4943007.1796184-10.9597221-.8656434-16-3.06-4.0315089 2.0305737-8.4860296 3.0790994-13 3.06v-3.5c.0053243-.9264138-.3589657-1.8167121-1.0121703-2.4736707-.6532045-.6569586-1.5414006-1.0263446-2.4678297-1.0263293h-1.16c-1.9329966 0-3.5-1.5670034-3.5-3.5s1.5670034-3.5 3.5-3.5h5.8c.9264291.0000153 1.8146252-.3693707 2.4678297-1.0263293.6532046-.6569586 1.0174946-1.5472569 1.0121703-2.4736707-.0000314-1.925213 1.5548184-3.4889988 3.48-3.5h19.76c-.9404054 3.2946963-2.4645737 6.3938386-4.5 9.15.62 3.66 2.01 8.85 5.62 11.85z"/><path id="Shape" d="m28.84 31.5c.0053243.9264138-.3589657 1.8167121-1.0121703 2.4736707-.6532045.6569586-1.5414006 1.0263446-2.4678297 1.0263293h-23.74c-1.51287707-7.1982983-.24073858-14.702486 3.56-21h15.54c1.9329966 0 3.5 1.5670034 3.5 3.5s-1.5670034 3.5-3.5 3.5h-4.64c-1.9329966 0-3.5 1.5670034-3.5 3.5s1.5670034 3.5 3.5 3.5h9.28c.9264291-.0000153 1.8146252.3693707 2.4678297 1.0263293.6532046.6569586 1.0174946 1.5472569 1.0121703 2.4736707z"/><path id="Shape" d="m58.92 27h-16.16c-.9264291.0000153-1.8146252-.3693707-2.4678297-1.0263293-.6532046-.6569586-1.0174946-1.5472569-1.0121703-2.4736707.0000314-1.925213-1.5548184-3.4889988-3.48-3.5h-1.16c-1.9329966 0-3.5-1.5670034-3.5-3.5s1.5670034-3.5 3.5-3.5h5.8c.9264291.0000153 1.8146252-.3693707 2.4678297-1.0263293.6532046-.6569586 1.0174946-1.5472569 1.0121703-2.4736707-.0000314-1.925213 1.5548184-3.48899878 3.48-3.5l.1-.12c6.6913547 5.0490296 10.8588109 12.7562691 11.42 21.12z"/></g></g></svg>