<svg id="Layer_1" enable-background="new 0 0 510 510" height="512" viewBox="0 0 510 510" width="512" xmlns="http://www.w3.org/2000/svg"><g id="XMLID_3030_"><path id="XMLID_3118_" d="m412.75 420 15 15 15-15 10-137.501-10-132.499-15-15-15 15z" fill="#ffdc75"/><g id="XMLID_3027_"><path id="XMLID_3079_" d="m202.75 120-82.75 15-82.75-15c0-10.889 0-79.039 0-90h165.5l15 45z" fill="#4d4d8c"/></g><g id="XMLID_3050_"><path id="XMLID_3185_" d="m367.25 120-82.5 15-82.5-15c0-10.889 0-79.039 0-90h165z" fill="#283366"/></g><g id="XMLID_3043_"><path id="XMLID_3083_" d="m97.25 0h30v60h-30z" fill="#283366"/></g><g id="XMLID_3042_"><path id="XMLID_3081_" d="m157.25 0h30v60h-30z" fill="#283366"/></g><g id="XMLID_3037_"><path id="XMLID_3080_" d="m217.25 0h30v60h-30z" fill="#0a1833"/></g><g id="XMLID_3036_"><path id="XMLID_3078_" d="m277.25 0h30v60h-30z" fill="#0a1833"/></g><path id="XMLID_3104_" d="m442.75 420 15 15 15-15c0-15 0-255 0-270l-15-15-15 15z" fill="#ffc649"/><path id="XMLID_3120_" d="m412.75 105v45h30l15-37.5-15-37.5c-16.568 0-30 13.431-30 30z" fill="#ff8659"/><path id="XMLID_3108_" d="m442.75 75v75h30v-45c0-16.568-13.432-30-30-30z" fill="#ff5c5c"/><path id="XMLID_3119_" d="m412.75 420v45c9.533 14.299 20.467 30.701 30 45l15-60-15-30c-10.492 0-19.508 0-30 0z" fill="#e4e4ff"/><path id="XMLID_3105_" d="m442.75 510 30-45v-45h-30z" fill="#d0cef1"/><path id="XMLID_3072_" d="m202.25 510s-160.348 0-165 0c0-11.005 0-379.008 0-390h165l10 178z" fill="#fff5f5"/><path id="XMLID_3123_" d="m202.25 120h165v390h-165z" fill="#e4e4ff"/><g id="XMLID_3023_"><g><path id="XMLID_60_" d="m97.25 420h30v30h-30z" fill="#8e89fa"/></g></g><g id="XMLID_3021_"><path id="XMLID_3075_" d="m97.25 360h30v30h-30z" fill="#ff8659"/></g><g id="XMLID_3107_"><path id="XMLID_3115_" d="m202.75 450c-14.981 0-30.5 0-45.5 0 0-10.492 0-19.508 0-30h45.5l15 15z" fill="#afd1fd"/></g><g id="XMLID_3089_"><path id="XMLID_3106_" d="m202.75 390c-14.981 0-30.5 0-45.5 0 0-10.492 0-19.508 0-30h45.5l15 15z" fill="#afd1fd"/></g><g id="XMLID_3002_"><g><g id="XMLID_59_"><path d="m97.75 180h105v30h-105z" fill="#8e89fa"/></g></g></g><g id="XMLID_2999_"><path id="XMLID_3049_" d="m202.75 270c-28.278 0-88.5 0-105.5 0 0-10.492 0-19.508 0-30h105.5l15 15z" fill="#afd1fd"/></g><g id="XMLID_2993_"><path id="XMLID_3048_" d="m202.75 330c-28.278 0-88.5 0-105.5 0 0-10.492 0-19.508 0-30h105.5l15 15z" fill="#afd1fd"/></g><g id="XMLID_3187_"><path id="XMLID_3195_" d="m202.25 240h105v30h-105z" fill="#6dabfc"/></g><g id="XMLID_3087_"><path id="XMLID_3186_" d="m202.25 300h105v30h-105z" fill="#6dabfc"/></g><g id="XMLID_3022_"><path id="XMLID_3076_" d="m202.25 420h105v30h-105z" fill="#6dabfc"/></g><g id="XMLID_3020_"><path id="XMLID_3074_" d="m202.25 360h105v30h-105z" fill="#6dabfc"/></g></g></svg>