<?xml version="1.0"?>
<svg xmlns="http://www.w3.org/2000/svg" xmlns:xlink="http://www.w3.org/1999/xlink" xmlns:svgjs="http://svgjs.com/svgjs" version="1.1" width="512" height="512" x="0" y="0" viewBox="0 0 510 510" style="enable-background:new 0 0 512 512" xml:space="preserve" class=""><g><g xmlns="http://www.w3.org/2000/svg" id="XMLID_227_"><path id="XMLID_932_" d="m30 60v315l15 15 15-15 97.5 15 97.5-15 15-157.5-15-157.5c-15.191 0-209.806 0-225 0z" fill="#4b6bbb" data-original="#4d4d8c" style="" class=""/><path id="XMLID_930_" d="m480 60c-15.191 0-209.806 0-225 0v315l97.5 15 97.5-15 15 15 15-15c0-17.496 0-297.504 0-315z" fill="#3c58a0" data-original="#283366" style="" class=""/><path id="XMLID_929_" d="m60 90v285l97.5 15 97.5-15 10-147.667-10-137.333s-184.178 0-195 0z" fill="#fff5f5" data-original="#fff5f5" style="" class=""/><path id="XMLID_926_" d="m450 90c-10.822 0-184.178 0-195 0v285l97.5 15 97.5-15c0-15.815 0-269.185 0-285z" fill="#e4e4ff" data-original="#e4e4ff" style="" class=""/><path id="XMLID_923_" d="m180 150v45l37.5 15 37.5-15 15-22.5-15-22.5-37.5-15z" fill="#3c58a0" data-original="#716dd4" style="" class=""/><path id="XMLID_920_" d="m330 150-37.5-15-37.5 15v45l37.5 15 37.5-15c0-14.981 0-30.019 0-45z" fill="#1e4292" data-original="#5450ad" style="" class=""/><path id="XMLID_247_" d="m150 120v30h105l15-15-15-15c-28.278 0-88.527 0-105 0z" fill="#4b6bbb" data-original="#8e89fa" style="" class=""/><path id="XMLID_246_" d="m360 120c-28.278 0-88.527 0-105 0v30h105c0-10.492 0-19.508 0-30z" fill="#3c58a0" data-original="#716dd4" style="" class=""/><path id="XMLID_245_" d="m170.093 285.181c-1.477.121-2.937.3-4.378.534l44.643 59.643 44.642 29.642 15-45-15-45h-40.25c-42.011.06-40.786-.136-44.657.181z" fill="#f7d783" data-original="#ffdc75" style="" class=""/><path id="XMLID_244_" d="m295.25 285h-40.25v90l60.643-44.643 28.643-44.643c-1.441-.234-2.901-.414-4.378-.534-3.881-.317-2.697-.12-44.658-.18z" fill="#efca68" data-original="#ffc649" style="" class=""/><path id="XMLID_925_" d="m180 195v15c0 41.354 33.644 75 75 75l15-45-15-45c-20.194 0-63.236 0-75 0z" fill="#f1ccbd" data-original="#f1ccbd" style="" class=""/><path id="XMLID_924_" d="m330 210c0-5.246 0-9.754 0-15-20.194 0-63.236 0-75 0v90c41.353 0 75-33.644 75-75z" fill="#eebda9" data-original="#eebda9" style="" class=""/><path id="XMLID_243_" d="m120 339.5v35.5l67.5 15 67.5-15c-10.804-10.804-78.41-78.41-89.285-89.285-25.922 4.203-45.715 26.679-45.715 53.785z" fill="#4b6bbb" data-original="#8e89fa" style="" class=""/><path id="XMLID_242_" d="m390 339.5c0-27.109-19.795-49.583-45.715-53.785-10.804 10.803-78.41 78.41-89.285 89.285l67.5 15 67.5-15c0-12.416 0-23.084 0-35.5z" fill="#3c58a0" data-original="#716dd4" style="" class=""/><path id="XMLID_884_" d="m0 375v15c0 33.136 26.862 60 60 60h195l15-37.5-15-37.5c-7.193 0-247.807 0-255 0z" fill="#3c58a0" data-original="#283366" style="" class=""/><path id="XMLID_241_" d="m510 390c0-5.246 0-9.754 0-15-7.193 0-247.807 0-255 0v75h195c16.568 0 31.568-6.716 42.426-17.574 18.959-18.958 17.438-41.789 17.574-42.426z" fill="#1e4292" data-original="#0a1833" style="" class=""/></g></g></svg>
