<svg id="Capa_1" enable-background="new 0 0 512 512" height="512" viewBox="0 0 512 512" width="512" xmlns="http://www.w3.org/2000/svg"><g><path d="m505 98.966h-32.229l-216.771 20-216.77-20h-32.23c-3.866 0-7 3.134-7 7v319.403c0 3.866 3.134 7 7 7h214.423c2.16 0 4.219.982 5.522 2.705 6.646 8.792 17.185 14.476 29.055 14.476 11.871 0 22.409-5.684 29.055-14.476 1.302-1.723 3.362-2.705 5.522-2.705h214.423c3.866 0 7-3.134 7-7v-319.403c0-3.866-3.134-7-7-7z" fill="#fc5a36"/><path d="m256 397.549-216.771-42.799v-287.415c0-3.866 3.134-7 7-7h156.669c29.327 0 53.102 23.774 53.102 53.102z" fill="#d9ecfd"/><path d="m39.23 354.752v-287.42c0-3.86 3.13-7 7-7h20c-3.87 0-7 3.14-7 7v287.42z" fill="#c5e2ff"/><path d="m256 397.549 216.771-42.799v-287.415c0-3.866-3.134-7-7-7h-156.67c-29.327 0-53.102 23.774-53.102 53.102v284.112z" fill="#d9ecfd"/><path d="m329.1 60.332c-29.33 0-53.1 23.78-53.1 53.1v280.17l-20 3.95v-284.12c0-29.32 23.77-53.1 53.1-53.1z" fill="#c5e2ff"/><path d="m256 397.549h-209.771c-3.866 0-7-3.134-7-7v-35.799h175.229c22.943 0 41.541 18.599 41.541 41.541v1.258z" fill="#ffe378"/><path d="m66.23 397.552h-20c-3.87 0-7-3.14-7-7v-35.8h20v35.8c0 3.86 3.13 7 7 7z" fill="#ffc85e"/><path d="m256 397.549h209.771c3.866 0 7-3.134 7-7v-35.799h-175.23c-22.943 0-41.541 18.599-41.541 41.541z" fill="#ffe378"/><path d="m393.233 354.75v94.499c0 1.872 2.037 3.032 3.647 2.077l13.627-8.082c2.202-1.306 4.94-1.306 7.142 0l13.627 8.082c1.61.955 3.647-.205 3.647-2.077v-94.499z" fill="#456b93"/><path d="m206.723 160.207h-118.217c-3.866 0-7-3.134-7-7v-41.463c0-3.866 3.134-7 7-7h118.218c3.866 0 7 3.134 7 7v41.463c-.001 3.866-3.135 7-7.001 7z" fill="#c5e2ff"/><g><g><g><path d="m215.133 212.922h-133.627c-4.267 0-7.727-3.459-7.727-7.727s3.46-7.727 7.727-7.727h133.627c4.267 0 7.727 3.459 7.727 7.727s-3.46 7.727-7.727 7.727z" fill="#456b93"/></g><g><path d="m215.133 247.951h-133.627c-4.267 0-7.727-3.459-7.727-7.727s3.46-7.727 7.727-7.727h133.627c4.267 0 7.727 3.459 7.727 7.727s-3.46 7.727-7.727 7.727z" fill="#456b93"/></g><g><path d="m215.133 282.98h-133.627c-4.267 0-7.727-3.459-7.727-7.727s3.46-7.727 7.727-7.727h133.627c4.267 0 7.727 3.459 7.727 7.727s-3.46 7.727-7.727 7.727z" fill="#456b93"/></g><g><path d="m148.319 318.009h-66.813c-4.267 0-7.727-3.459-7.727-7.727s3.46-7.727 7.727-7.727h66.813c4.267 0 7.727 3.459 7.727 7.727s-3.459 7.727-7.727 7.727z" fill="#456b93"/></g></g></g><g><g><g><path d="m431.544 115.39h-133.627c-4.267 0-7.727-3.459-7.727-7.727s3.46-7.727 7.727-7.727h133.627c4.267 0 7.727 3.459 7.727 7.727s-3.46 7.727-7.727 7.727z" fill="#456b93"/></g><g><path d="m431.544 150.419h-133.627c-4.267 0-7.727-3.459-7.727-7.727s3.46-7.727 7.727-7.727h133.627c4.267 0 7.727 3.459 7.727 7.727s-3.46 7.727-7.727 7.727z" fill="#456b93"/></g><g><path d="m431.544 185.448h-133.627c-4.267 0-7.727-3.459-7.727-7.727s3.46-7.727 7.727-7.727h133.627c4.267 0 7.727 3.459 7.727 7.727s-3.46 7.727-7.727 7.727z" fill="#456b93"/></g><g><path d="m364.73 220.477h-66.813c-4.267 0-7.727-3.459-7.727-7.727s3.46-7.727 7.727-7.727h66.813c4.267 0 7.727 3.459 7.727 7.727s-3.459 7.727-7.727 7.727z" fill="#456b93"/></g></g></g></g></svg>