<svg id="Capa_1" enable-background="new 0 0 512 512" height="512" viewBox="0 0 512 512" width="512" xmlns="http://www.w3.org/2000/svg"><g><g><path d="m251.969 240.891-104.962.057c-25.328.014-45.869-20.515-45.869-45.844v-96.726c0-54.283 43.989-98.295 98.272-98.325 54.324-.029 98.378 44.001 98.378 98.325v96.67c0 25.309-20.51 45.83-45.819 45.843z" fill="#aa6a51"/><path d="m352.657 366.997v-52.698c0-36.534-25.753-67.987-61.526-75.142l-46.283-13.118c-9.24-2.619-15.623-11.108-15.623-20.778v-26.513h-59.523v26.483c0 9.666-6.38 18.154-15.616 20.775l-46.303 13.142c-35.767 7.161-61.513 38.611-61.513 75.14v52.709" fill="#98d5b9"/><g><g><path d="m296.03 374.609c-4.204 0-7.611-3.408-7.611-7.611v-22.653c0-4.204 3.407-7.611 7.611-7.611s7.612 3.408 7.612 7.611v22.653c-.001 4.203-3.408 7.611-7.612 7.611z" fill="#57be92"/></g><g><path d="m102.897 374.609c-4.204 0-7.611-3.408-7.611-7.611v-22.653c0-4.204 3.407-7.611 7.611-7.611s7.611 3.408 7.611 7.611v22.653c0 4.203-3.407 7.611-7.611 7.611z" fill="#57be92"/></g></g><path d="m154.086 226.005c6.628 4.16 24.416 14.082 48.824 13.094 20.379-.825 35.175-8.841 41.904-13.073-9.221-2.63-15.589-11.109-15.589-20.766v-26.513h-59.523v26.483c0 9.666-6.38 18.154-15.616 20.775z" fill="#ffcebf"/><g><path d="m239.115 226.204c1.735 0 3.456-.127 5.157-.357-8.923-2.805-15.047-11.123-15.047-20.587v-26.513h-59.523v26.483c0 1.895-.253 3.742-.717 5.511l3.988 4.017c7.276 7.328 17.143 11.445 27.433 11.445h38.709z" fill="#ffb09e"/><path d="m267.342 99.404v46.846 6.513c0 13.096-5.165 25.655-14.358 34.915l-6.733 6.782c-7.276 7.328-17.143 11.445-27.433 11.445h-38.709c-10.289 0-20.157-4.117-27.433-11.445l-6.733-6.782c-9.193-9.26-14.358-21.82-14.358-34.915v-6.513-46.846c8.839 2.193 28.962 5.905 52.737-1.375 20.891-6.397 34.473-18.179 40.896-24.565 1.617 3.615 6.184 12.536 16.343 19.074 11.031 7.098 21.932 7.059 25.781 6.866z" fill="#ffcebf"/><g fill="#ffb09e"><path d="m131.584 106.292h-17.253c-7.286 0-13.193 5.907-13.193 13.193v20.587c0 7.286 5.907 13.193 13.193 13.193h17.253z"/><path d="m267.342 106.292h17.253c7.286 0 13.193 5.907 13.193 13.193v20.587c0 7.286-5.907 13.193-13.193 13.193h-17.253z"/></g></g></g><g><g><g><path d="m11.417 389.832c-4.204 0-7.611-3.408-7.611-7.611v-99.042c0-21.604 2.441-31.333 9.672-38.557l15.779-15.763c2.975-2.971 7.793-2.968 10.764.006s2.969 7.793-.005 10.764l-15.779 15.761c-2.744 2.742-5.208 6.93-5.208 27.788v99.042c0 4.204-3.408 7.612-7.612 7.612z" fill="#a79ba7"/></g><path d="m34.637 234.242c5.945 5.945 15.584 5.945 21.529 0l22.426-22.426c5.945-5.945 5.945-15.584 0-21.529-5.945-5.945-15.584-5.945-21.529 0l-22.426 22.426c-5.945 5.946-5.945 15.584 0 21.529z" fill="#7a6d79"/></g></g><g><path d="m387.509 389.832c-4.204 0-7.612-3.408-7.612-7.611v-99.042c0-20.858-2.464-25.046-5.208-27.788l-15.779-15.763c-2.974-2.971-2.976-7.79-.005-10.764 2.971-2.973 7.789-2.977 10.764-.005l15.778 15.763c7.232 7.223 9.673 16.953 9.673 38.557v99.042c.001 4.203-3.407 7.611-7.611 7.611z" fill="#a79ba7"/></g><path d="m364.29 234.242c-5.945 5.945-15.584 5.945-21.529 0l-22.426-22.426c-5.945-5.945-5.945-15.584 0-21.529 5.945-5.945 15.584-5.945 21.529 0l22.426 22.426c5.945 5.946 5.945 15.584 0 21.529z" fill="#7a6d79"/><g><path d="m37.314 501.851v-90.246h324.298v90.246c0 5.605-4.544 10.149-10.149 10.149h-304c-5.605 0-10.149-4.544-10.149-10.149z" fill="#918291"/><path d="m37.301 450.532v-38.927h324.298v70.27z" fill="#7a6d79"/><path d="m379.898 442.051h-360.869c-8.407 0-15.223-6.816-15.223-15.223v-44.608c0-8.407 6.816-15.223 15.223-15.223h360.869c8.407 0 15.223 6.816 15.223 15.223v44.608c0 8.407-6.816 15.223-15.223 15.223z" fill="#918291"/></g><path d="m361.039 0h116.71c16.815 0 30.446 13.631 30.446 30.446v40.595c0 16.815-13.631 30.446-30.446 30.446h-69.402c-2.618 0-5.115 1.099-6.884 3.028l-19.838 21.644c-2.501 2.729-7.051.96-7.052-2.742l-.003-12.595c-.001-5.156-4.181-9.335-9.337-9.335h-4.193c-16.815 0-30.446-13.631-30.446-30.446v-40.595c-.001-16.815 13.63-30.446 30.445-30.446z" fill="#e2dee2"/><g><path d="m448.972 43.639h-53.068c-4.204 0-7.612-3.408-7.612-7.611s3.407-7.611 7.612-7.611h53.068c4.204 0 7.611 3.408 7.611 7.611s-3.407 7.611-7.611 7.611z" fill="#a79ba7"/></g><g><path d="m448.972 74.085h-53.068c-4.204 0-7.612-3.408-7.612-7.611s3.407-7.611 7.612-7.611h53.068c4.204 0 7.611 3.408 7.611 7.611s-3.407 7.611-7.611 7.611z" fill="#a79ba7"/></g></g></svg>