<svg id="Capa_1" enable-background="new 0 0 512 512" height="512" viewBox="0 0 512 512" width="512" xmlns="http://www.w3.org/2000/svg"><g><path d="m286 512h-60c-6.456 0-12.188-4.132-14.23-10.257-3.936-11.808-14.945-19.743-27.393-19.743h-169.377c-8.284 0-15-6.716-15-15v-362c0-8.284 6.716-15 15-15h482c8.284 0 15 6.716 15 15v362c0 8.284-6.716 15-15 15h-169.377c-12.448 0-23.457 7.935-27.393 19.743-2.042 6.125-7.774 10.257-14.23 10.257z" fill="#ff80aa"/><path d="m235.694 482c-10.275-18.303-29.735-30-51.317-30h-154.377v-362h452v362h-154.377c-21.582 0-41.041 11.695-51.317 30z" fill="#ff3c7d"/><path d="m497 90h-241v422h30c6.456 0 12.188-4.132 14.23-10.257 3.936-11.808 14.945-19.743 27.393-19.743h169.377c8.284 0 15-6.716 15-15v-362c0-8.284-6.716-15-15-15z" fill="#ff3c7d"/><path d="m276.306 482c10.276-18.305 29.735-30 51.317-30h154.377v-362h-226v392z" fill="#b7457d"/><g><path d="m256 452c-5.016 0-9.698-2.507-12.48-6.68-9.735-14.603-26.025-23.32-43.575-23.32h-124.945c-8.284 0-15-6.716-15-15v-352c0-8.284 6.716-15 15-15h45l136 30 136-30h45c8.284 0 15 6.716 15 15v352c0 8.284-6.716 15-15 15h-124.944c-17.55 0-33.84 8.718-43.575 23.32-2.783 4.173-7.465 6.68-12.481 6.68z" fill="#e7f1f9"/></g><path d="m437 40h-45l-136 30v382c5.016 0 9.698-2.507 12.48-6.68 9.735-14.603 26.025-23.32 43.575-23.32h124.945c8.284 0 15-6.716 15-15v-352c0-8.284-6.716-15-15-15z" fill="#b1d5f1"/><path d="m377 0h-61c-11.493 0-22.39 2.598-32.135 7.238-17.181 8.181-27.865 25.804-27.865 44.834 0-19.03-10.684-36.653-27.865-44.834-9.745-4.64-20.642-7.238-32.135-7.238h-61c-8.284 0-15 6.716-15 15v332c0 8.284 6.716 15 15 15h31c41.355 0 75 33.645 75 75 0 8.284 6.716 15 15 15s15-6.716 15-15c0-41.355 33.645-75 75-75h31c8.284 0 15-6.716 15-15v-332c0-8.284-6.716-15-15-15z" fill="#fff5f5"/><path d="m377 0h-61c-11.493 0-22.39 2.598-32.135 7.238-17.181 8.181-27.865 25.804-27.865 44.834v399.928c8.284 0 15-6.716 15-15 0-41.355 33.645-75 75-75h31c8.284 0 15-6.716 15-15v-332c0-8.284-6.716-15-15-15z" fill="#e7f1f9"/></g></svg>