<svg id="Capa_1" enable-background="new 0 0 497 497" height="512" viewBox="0 0 497 497" width="512" xmlns="http://www.w3.org/2000/svg"><g><path d="m479.877 430.519h-462.754c-9.457 0-17.123-7.666-17.123-17.123v-324.623c0-9.457 7.666-17.123 17.123-17.123h20.591l209.573 60 211.363-60h21.228c9.457 0 17.123 7.666 17.123 17.123v324.623c-.001 9.457-7.667 17.123-17.124 17.123z" fill="#8795de"/><path d="m479.877 71.65h-30c9.457 0 17.123 7.666 17.123 17.123v324.623c0 9.457-7.666 17.123-17.123 17.123h30c9.457 0 17.123-7.666 17.123-17.123v-324.623c0-9.457-7.666-17.123-17.123-17.123z" fill="#6c7fd8"/><path d="m248.521 320.413v71.817h-189.072c-12.004 0-21.735-9.731-21.735-21.735v-50.082" fill="#fff3e8"/><path d="m208.794 38.351h-154.352c-9.239 0-16.728 7.489-16.728 16.728v297.424h171.08c21.94 0 39.726 17.786 39.726 39.727v-314.152c.001-21.94-17.786-39.727-39.726-39.727z" fill="#fff9f0"/><path d="m459.327 320.413h-210.806v71.817h189.072c12.004 0 21.735-9.731 21.735-21.735v-50.082z" fill="#fff3e8"/><path d="m377.895 345.004h-48.809c-4.143 0-7.5 3.358-7.5 7.5v98.645c0 2.624 1.371 5.057 3.616 6.416s5.037 1.445 7.361.229l21.298-11.147 20.458 11.095c1.116.605 2.347.907 3.575.907 1.328 0 2.656-.353 3.836-1.055 2.272-1.353 3.664-3.801 3.664-6.445v-98.645c.001-4.143-3.357-7.5-7.499-7.5z" fill="#d5daf3"/><path d="m288.247 38.351h154.352c9.239 0 16.728 7.489 16.728 16.728v297.424h-171.08c-21.94 0-39.726 17.786-39.726 39.727v-314.152c0-21.94 17.786-39.727 39.726-39.727z" fill="#fff9f0"/><path d="m272.521 78.078c0-21.94 17.786-39.726 39.727-39.726h-24c-21.94 0-39.727 17.786-39.727 39.726v314.152c0-16.353 9.883-30.393 24-36.486z" fill="#ffefe0"/><path d="m224.521 78.078c0-21.94-17.786-39.726-39.727-39.726h24c21.94 0 39.727 17.786 39.727 39.726l10 122.338-10 191.815c0-16.353-9.883-30.393-24-36.486z" fill="#ffefe0"/><path d="m347.362 113.237h-52.509c-3.155 0-5.712 2.557-5.712 5.712v44.724c0 3.155 2.557 5.712 5.712 5.712h52.509c3.155 0 5.712-2.557 5.712-5.712v-44.724c0-3.155-2.557-5.712-5.712-5.712z" fill="#feaee1"/><path d="m347.362 113.237h-30c3.155 0 5.712 2.557 5.712 5.712v44.724c0 3.155-2.557 5.712-5.712 5.712h30c3.155 0 5.712-2.557 5.712-5.712v-44.724c0-3.155-2.557-5.712-5.712-5.712z" fill="#fe93d3"/><path d="m122.183 91.451h-44.655c-4.143 0-7.5-3.358-7.5-7.5s3.357-7.5 7.5-7.5h44.654c4.143 0 7.5 3.358 7.5 7.5s-3.357 7.5-7.499 7.5z" fill="#ffe9d6"/><path d="m210.406 123.795h-132.878c-4.143 0-7.5-3.358-7.5-7.5s3.357-7.5 7.5-7.5h132.878c4.143 0 7.5 3.358 7.5 7.5s-3.357 7.5-7.5 7.5z" fill="#ffe9d6"/><path d="m210.406 154.637h-132.878c-4.143 0-7.5-3.358-7.5-7.5s3.357-7.5 7.5-7.5h132.878c4.143 0 7.5 3.358 7.5 7.5s-3.357 7.5-7.5 7.5z" fill="#ffe9d6"/><path d="m210.406 185.479h-132.878c-4.143 0-7.5-3.358-7.5-7.5s3.357-7.5 7.5-7.5h132.878c4.143 0 7.5 3.358 7.5 7.5s-3.357 7.5-7.5 7.5z" fill="#ffe9d6"/><path d="m210.406 216.321h-132.878c-4.143 0-7.5-3.358-7.5-7.5s3.357-7.5 7.5-7.5h132.878c4.143 0 7.5 3.358 7.5 7.5s-3.357 7.5-7.5 7.5z" fill="#ffe9d6"/><path d="m205.966 236.315h-118.988c-3.575 0-6.472 2.898-6.472 6.472v63.856c0 3.574 2.897 6.472 6.472 6.472h118.989c3.575 0 6.472-2.898 6.472-6.472v-63.856c-.001-3.575-2.898-6.472-6.473-6.472z" fill="#fe93d3"/><path d="m205.966 236.315h-30c3.575 0 6.472 2.898 6.472 6.472v63.856c0 3.574-2.897 6.472-6.472 6.472h30c3.575 0 6.472-2.898 6.472-6.472v-63.856c0-3.575-2.897-6.472-6.472-6.472z" fill="#fe73c5"/><g fill="#ffe9d6"><path d="m419.514 123.796h-41.619c-4.143 0-7.5-3.358-7.5-7.5s3.357-7.5 7.5-7.5h41.619c4.143 0 7.5 3.358 7.5 7.5s-3.358 7.5-7.5 7.5z"/><path d="m419.514 154.637h-41.619c-4.143 0-7.5-3.358-7.5-7.5s3.357-7.5 7.5-7.5h41.619c4.143 0 7.5 3.358 7.5 7.5s-3.358 7.5-7.5 7.5z"/><path d="m419.513 185.479h-41.618c-4.143 0-7.5-3.358-7.5-7.5s3.357-7.5 7.5-7.5h41.618c4.143 0 7.5 3.358 7.5 7.5s-3.358 7.5-7.5 7.5z"/><path d="m419.513 216.321h-132.878c-4.143 0-7.5-3.358-7.5-7.5s3.357-7.5 7.5-7.5h132.878c4.143 0 7.5 3.358 7.5 7.5s-3.358 7.5-7.5 7.5z"/><path d="m419.513 250.267h-132.878c-4.143 0-7.5-3.358-7.5-7.5s3.357-7.5 7.5-7.5h132.878c4.143 0 7.5 3.358 7.5 7.5s-3.358 7.5-7.5 7.5z"/><path d="m419.513 284.213h-132.878c-4.143 0-7.5-3.358-7.5-7.5s3.357-7.5 7.5-7.5h132.878c4.143 0 7.5 3.358 7.5 7.5s-3.358 7.5-7.5 7.5z"/><path d="m419.513 318.159h-132.878c-4.143 0-7.5-3.358-7.5-7.5s3.357-7.5 7.5-7.5h132.878c4.143 0 7.5 3.358 7.5 7.5s-3.358 7.5-7.5 7.5z"/></g></g></svg>